<svg width="239" height="496" viewBox="0 0 239 496" fill="none" xmlns="http://www.w3.org/2000/svg">
<path d="M122.237 266.651L122.098 253.065L115.352 253.117C115.829 260.422 115.542 267.159 114.368 274.423L112.717 284.659C111.471 292.369 109.251 299.735 108.359 307.502L106.498 323.685L105.934 333.931C105.611 339.73 103.879 345.232 101.382 350.458C99.3314 354.746 98.7419 358.747 99.0392 363.629L100.346 385.028C100.71 391.027 99.111 396.155 97.5628 401.862C93.8306 415.627 92.1389 429.597 91.4519 443.88C91.0213 452.845 94.7739 457.154 93.1847 463.527C91.1443 471.718 95.9274 476.278 92.5849 481.467C91.7185 482.809 89.5295 483.66 87.8787 484.367C88.1607 487.604 86.92 490.484 83.8595 491.652C81.491 495.658 76.2261 496.093 72.822 493.286C70.9918 494.065 69.2283 493.967 67.27 493.445L63.4148 492.42C62.0153 492.051 59.1136 491.226 58.2729 490.064C56.3812 487.456 58.278 484.577 60.508 483.086C63.1841 481.293 65.7679 479.054 67.475 476.237C69.6538 472.64 73.1911 468.521 73.6525 464.454C73.8422 460.801 73.6269 457.973 74.7547 454.433C76.1081 450.181 75.8723 445.212 75.2212 440.75L71.4174 414.787L68.1056 393.982C66.1575 381.754 67.7057 369.674 71.402 357.83C73.1758 352.148 74.1139 347.092 73.3296 341.129C72.4888 334.782 75.2264 326.001 73.4987 319.577C70.31 307.697 68.1261 296.114 66.6189 283.865C65.1527 271.928 63.9685 260.463 65.2911 248.347C67.1316 231.431 70.6535 214.93 77.0104 199.233C77.9947 196.805 78.1485 194.945 79.0918 192.451C81.1783 186.923 81.2706 182.942 82.8393 179.105C85.9101 171.6 84.9514 165.673 82.8137 155.745L77.1437 140.739C75.0162 149.377 71.566 156.744 68.2338 164.751C65.7423 170.734 67.7365 185.996 55.8685 205.673C50.4036 214.735 39.2841 233.952 37.4078 242.394C36.7875 245.181 37.5821 248.593 37.2335 251.488C36.5824 256.882 34.6395 261.774 33.3014 266.979L29.5437 281.61C29.3694 282.287 27.7443 283.25 27.0624 283.286C26.3806 283.322 25.4886 282.379 25.058 281.698L23.7507 285.279C23.2995 286.513 21.2335 286.769 20.0801 286.375C19.3265 288.603 18.0089 289.997 15.4611 289.654C14.4921 289.52 12.5953 289.233 12.1852 288.455C11.7135 287.553 11.4316 285.883 11.3496 284.94C10.9087 285.207 9.87824 285.745 9.29381 285.909C6.99199 286.554 6.19225 282.348 7.17655 276.99L10.7446 257.497C7.53028 261.124 3.08556 266.037 0.670956 263.485C-0.123659 262.645 0.235199 260.868 1.15798 260.043C3.09069 258.316 4.28517 256.324 5.76675 254.367C7.46363 252.123 8.82217 250.34 9.71419 247.481L13.959 243.142C16.0557 241.001 18.0192 239.469 20.7568 238.096L21.6847 234.976C27.2829 223.014 30.8202 210.847 33.1887 197.845C35.3264 186.114 39.4892 175.453 45.8717 165.396C47.7942 159.387 48.6401 153.45 49.6295 147.194C49.6756 140.125 52.7516 133.859 53.7718 127.066L53.5872 111.339C54.6638 103.045 57.4475 95.2682 63.2764 89.2026C67.8698 84.9352 73.2988 81.5745 79.7634 82.0612C86.351 79.5509 93.1744 77.8143 98.7931 73.5776C102.018 71.262 103.607 68.1831 103.289 64.0847C103.048 60.9905 103.146 57.138 102.279 54.3562L100.172 47.5837L97.6755 46.18C93.523 39.8019 90.9085 29.1616 97.0757 30.0581C97.1014 26.8511 96.8194 23.6339 97.1321 20.7599C98.2036 11.0366 105.16 2.08675 114.675 0.391055C123.365 -1.15608 132.075 1.93306 137.288 8.84905C140.472 13.0652 141.395 19.1052 141.272 24.2282L141.133 29.8532C146.332 29.5202 144.225 38.8542 141.456 44.5356C140.836 45.8112 138.939 46.8511 137.852 47.3942L135.561 54.3511C134.582 57.3224 134.72 61.344 134.541 64.6227C134.351 68.1011 135.838 70.9649 138.519 72.9987C144.235 77.3276 150.382 80.2118 157.287 82.5581L163.326 82.9782C178.731 84.3255 186.083 103.28 185.175 117.415L184.555 127.041C188.405 140.596 188.954 151.436 193.588 164.659L196.151 169.336C207.712 188.434 207.056 207.563 214.079 224.853L219.288 237.036L225.122 243.316C227.793 245.468 228.9 248.26 230.807 251.057L235.17 257.44C236.154 258.88 237.964 260.601 238.466 262.21C238.625 262.717 237.856 263.921 237.374 264.059C233.719 265.104 231.191 260.565 227.967 257.343L229.971 267.794C231.115 273.752 233.683 284.546 230.387 285.361C229.659 285.54 228.141 285.15 227.305 284.884C227.239 285.77 226.957 287.589 226.49 288.322C226.024 289.054 224.214 289.525 223.22 289.561C221.02 289.633 220.103 289.561 218.593 288.414C218.054 288.383 216.729 286.851 216.181 286.462C215.115 285.709 214.289 283.05 214.064 281.872C213.125 282.333 211.88 282.953 211.188 282.871C210.398 282.773 209.055 281.359 208.84 280.524L205.307 266.59L202.175 256.447C201.088 251.877 201.534 245.873 202.508 241.098C200.576 235.391 198.756 231.272 196.059 225.827L185.816 207.379C171.482 184.725 173.492 172.22 170.196 164.556C166.417 155.78 162.824 147.394 160.86 138.07L155.565 159.761C153.17 169.577 153.616 179.172 157.072 188.532C158.051 191.185 158.215 193.706 158.476 196.61C158.574 197.707 159.768 199.459 160.281 200.652C165.279 212.271 168.166 224.187 170.421 236.646C172.41 247.625 173.19 258.193 171.99 269.423C170.365 284.679 168.248 299.464 164.623 314.31C163.47 319.034 162.731 323.322 162.798 328.291L163.065 348.578C163.142 354.572 168.996 365.622 168.94 380.955L168.919 387.133C167.561 405.325 161.716 423.629 160.435 441.769C160.127 446.103 159.676 450.694 161.065 454.761C162.239 458.194 162.48 460.924 161.983 464.515C162.767 467.22 164.926 470.33 166.356 472.932C168.842 477.466 171.877 480.791 176.127 483.762C177.906 485.007 179.752 488.475 177.773 490.217C175.389 492.323 171.529 492.645 168.55 493.481C166.622 494.024 165.018 494.126 163.111 493.245C159.758 495.888 154.519 495.919 152.043 491.867C148.685 490.94 147.649 487.799 147.767 484.408C146.239 483.854 144.071 483.05 143.225 481.898C139.001 476.139 144.917 471.124 142.292 463.224C140.508 457.861 144.466 452.343 144.091 445.391C143.322 431.083 141.774 416.923 138.483 402.984C137.032 396.836 135.458 391.436 135.863 385.002L137.027 366.616C137.294 362.399 138.15 358.25 136.535 354.3C133.951 347.989 131.024 341.79 130.537 334.833L129.004 312.881L128.184 303.762L125.625 290.478C124.123 282.671 122.319 274.92 122.232 266.626L122.237 266.651ZM117.854 59.8839C125.031 59.5714 132.946 57.8347 135.34 50.8317C138.432 41.7999 139.841 32.2507 139.995 22.7937C140.134 14.346 134.925 7.04065 127.492 4.24352C121.688 2.06114 116.136 2.17897 110.487 4.42282C100.044 8.57754 96.9988 19.6175 98.4548 30.6933C99.3929 37.804 100.9 44.556 102.484 51.5899C105.899 57.1636 110.758 58.7825 117.854 59.8839ZM97.3987 39.8019C98.9674 33.7978 96.7425 30.0478 95.5429 31.1441C93.8409 32.6964 95.1123 37.5273 96.4759 41.1339C97.2911 43.2907 97.8345 44.9659 99.8851 46.4105C99.8031 43.9157 98.9213 42.1841 97.3987 39.8019ZM138.457 46.3183C142.153 42.1585 142.748 37.056 142.984 32.2251C142.712 31.7948 142.292 31.0161 141.979 31.1237L140.646 31.5693C139.826 34.5714 139.954 37.4198 140.277 40.6575C139.267 42.0817 137.74 44.4382 138.457 46.3183ZM131.147 321.006C131.875 325.632 134.043 329.643 136.043 333.977C133.772 331.969 132.664 329.285 131.542 326.59C131.137 336.226 133.413 345.207 138.052 353.48C140.308 357.507 143.374 360.898 144.102 365.847L138.744 356.288L137.801 373.24C136.068 384.418 137.627 394.49 140.4 405.192C142.902 414.848 143.497 424.741 144.748 434.7C145.527 440.934 145.804 447.374 144.425 453.281C143.404 457.651 142.41 461.144 144.327 465.663C145.675 468.839 142.297 473.706 143.276 479.187C143.656 481.319 146.183 482.692 147.782 482.697L147.495 479.013C150.961 482.297 146.614 489.018 152.801 490.729C153.832 492.425 155.293 493.419 157.164 493.839C158.64 493.89 161.301 493.542 161.937 492.036C162.624 490.417 161.147 488.865 160.26 488.46L155.575 488.788L158.681 487.072L156.846 484.649C156.739 484.505 156.682 483.942 156.698 483.773C156.713 483.603 157.451 483.399 157.559 483.537L160.137 486.831C162.342 487.861 163.485 489.546 163.654 492.169L166.341 492.855C166.848 492.984 168.002 492.097 168.089 491.57C168.166 491.129 167.92 490.038 167.591 489.654L163.485 484.859L164.223 484.162L167.279 487.528C168.463 488.834 169.15 490.094 169.632 491.995C169.919 492.056 171.139 491.79 171.518 491.462C171.898 491.134 171.841 489.725 171.529 489.31L167.653 484.239C170.842 485.084 172.052 488.209 173.318 491.021C173.584 491.093 174.63 490.586 174.825 490.12C175.02 489.654 174.789 488.337 174.446 487.917L171.503 484.31C174.738 484.966 175.727 487.635 176.276 490.207C178.157 488.603 177.168 486.401 175.712 485.176L169.606 480.043C165.623 475.217 162.793 469.669 160.322 464.152C162.357 459.505 158.605 455.858 159.015 447.522L159.594 435.735L166.51 396.749L167.74 384.059L167.074 373.291C166.653 366.503 164.31 360.151 162.506 353.588C161.757 350.868 161.798 348.065 161.86 345.279L162.07 335.955L161.296 323.921L159.363 330.376L158.999 341.554L157.687 347.343C157.374 348.726 156.282 350.063 154.929 350.776C160.553 341.826 156.267 333.383 159.415 325.504C163.454 315.396 165.638 305.248 167.371 294.484C169.411 281.79 171.283 269.531 171.165 256.626C171.083 247.445 169.647 238.895 167.791 229.956C165.449 218.67 162.25 207.927 157.456 197.702L155.534 199.92C156.277 197.671 157.508 195.821 156.979 193.777L154.047 182.43C152.53 176.559 152.412 169.986 153.391 163.957C154.893 154.72 160.348 139.561 159.753 133.337L158.907 124.459C155.093 130.596 145.66 133.859 139.037 132.486L133.915 131.426L143.517 132.056C147.823 131.626 151.853 130.355 155.103 127.681C159.799 123.824 159.871 118.178 163.27 114.689C162.573 117.671 161.224 120.12 160.46 122.533C161.235 138.711 165.813 153.383 173.118 166.698C172.595 170.135 173.723 173.409 174.138 176.703C175.481 187.42 180.408 196.467 186.016 205.637C193.111 217.241 199.207 228.173 204.036 240.939C202.949 246.99 202.549 253.854 204.431 259.51L206.476 265.658L210.137 280.212C210.285 280.796 211.244 281.651 211.69 281.851C212.136 282.051 213.013 280.606 212.915 280.089L210.413 267.276C212.059 266.657 212.895 268.229 212.362 269.392L216.268 284.894L217.288 285.852C217.498 286.047 220.128 286.426 220.103 286.165L219.088 278.892L216.524 269.034C216.458 268.562 216.955 267.563 217.288 267.358C217.621 267.154 218.713 267.825 218.821 268.199L219.611 270.965L219.088 270.688L218.381 269.728L220.103 278.173L221 282.871L221.654 286.974C222.079 287.497 222.23 288.521 222.307 288.168C222.363 287.901 222.312 288.556 222.287 288.228L222.547 288.322L223.025 288.414C223.025 288.414 223.55 288.464 224.458 288.168C225.565 287.635 226.142 286.774 226.039 285.914L224.834 275.929L222.733 267.963C222.604 267.476 223.035 266.037 223.404 266.231L224.706 266.918L228.295 283.306C228.49 283.706 229.684 284.536 229.941 284.157L230.981 282.604L228.254 265.827L226.654 256.554C226.465 255.463 226.131 254.054 225.527 253.491C223.338 251.447 217.565 253.947 215.919 249.515C218.657 251.605 221.738 252.261 225.27 251.954L228.577 255.898C231.161 258.982 233.76 263.096 237.051 263.055C237.389 263.055 237.195 261.984 236.984 261.703L231.966 255.022L227.254 247.763C225.988 245.816 223.573 243.839 221.958 242.041C219.611 239.423 218.616 238.798 214.858 238.27L217.95 237.686L212.351 224.264L208.378 210.673L205.113 197.082C202.821 186.385 198.094 177.174 192.911 167.645C187.118 157 188.451 139.438 182.828 126.954C184.888 116.948 184.391 106.81 180.008 97.6401C175.538 88.2805 170.334 84.7866 160.348 83.8901L153.555 83.2292L137.632 83.6595C135.351 83.721 133.044 84.2231 130.967 83.844L135.607 83.1677L144.122 82.7784L152.653 82.3634C145.891 79.2128 140.836 77.2763 135.371 72.0458C133.336 70.0991 133.336 66.8511 133.423 64.2282L133.69 56.3337C130.542 59.0028 127.302 59.9198 123.57 60.8214C116.428 62.5376 111.533 59.8942 104.15 55.7753L104.232 67.763C104.273 73.7722 91.4827 81.8306 84.2594 82.3634C78.3587 82.7989 76.2568 83.68 71.1764 85.929C60.9797 90.4423 55.5302 103.055 54.6894 114.382L55.4379 127.082C54.187 132.907 51.7622 138.27 51.3982 144.346C50.4651 151.677 49.2912 158.603 47.179 165.729C40.2889 176.523 36.2595 188.045 34.014 200.652C31.948 212.266 28.5696 223.158 23.5866 233.777L22.0743 238.014C24.2223 238.147 25.3655 238.127 26.7702 238.839C19.0035 238.193 17.4296 242.138 13.3848 245.545C11.5597 247.082 10.6985 248.091 9.83723 250.468C9.27331 252.025 7.75072 253.777 6.63826 255.263L1.91158 261.6C1.69627 261.892 1.33741 262.738 1.63475 262.748C7.54053 262.942 9.79622 253.106 14.2102 252.271L22.6331 250.683C19.4854 254.151 14.9894 250.719 12.2928 254.689L10.2986 268.122L7.79686 282.671C7.68408 283.332 8.78116 284.659 9.33995 284.684C9.89875 284.71 10.6575 283.767 10.8113 283.014L14.0154 267.251C14.0923 266.872 14.6408 266.211 14.9587 265.996C15.2765 265.781 15.9635 267.025 16.0096 267.364C14.1487 273.711 13.1644 279.741 12.5235 286.288L13.2823 287.927C13.4361 288.26 14.5178 288.147 14.769 287.942L21.5587 270.383C21.7638 269.497 20.2011 269.371 20.8009 269.673C21.5597 270.062 23.115 269.09 22.9868 269.802L20.3569 284.556C20.7311 285.038 21.4899 285.832 21.7872 285.54L23.0483 284.29L26.5395 268.393C26.6831 267.84 26.9343 267.338 27.2111 267.072C27.4879 266.805 28.2518 268.071 28.1646 268.593L26.0576 280.893C25.991 281.277 27.3546 282.036 27.6264 281.744L28.8619 280.412L32.0557 265.847C35.4187 258.347 37.0438 250.56 35.7673 242.43C38.8227 234.059 42.4934 226.421 46.9073 218.736L56.0582 202.809C61.113 194.013 63.9121 184.474 65.0912 174.433L66.1114 165.78C71.7762 154.264 79.343 135.068 77.5743 122.538C77.2719 120.401 75.8621 118.296 75.3443 116.18C76.7951 117.333 77.5436 118.993 78.1331 120.524C79.789 124.817 82.6342 127.65 86.556 130.084C83.4032 129.817 81.7832 127.476 79.5378 125.186L78.3279 136.882C80.6656 146.897 90.3497 161.81 84.5875 181.58C83.352 185.821 81.5064 189.961 81.0809 194.423C80.9374 195.914 79.6813 196.908 79.1123 198.158C71.8018 214.177 65.8345 242.256 66.0396 259.705C66.2293 275.786 68.7926 291.283 71.8429 306.938C73.7807 316.872 79.0251 329.479 78.4561 334.049C77.6974 340.15 78.5227 345.519 81.9217 350.822C77.9896 348.573 76.8515 340.996 77.2155 335.955C77.5231 331.718 76.9438 327.722 75.3545 323.593L75.1905 329.295L74.5753 349.782C74.4266 354.695 68.7669 367.072 68.6439 382.563C68.5772 391.19 70.1972 399.526 71.6378 408.06L75.3648 430.079C76.6105 437.43 77.7589 450.888 75.7236 456.211C74.6368 459.054 74.642 461.621 75.5596 464.654L70.9354 473.511C65.7371 483.47 55.4328 485.668 59.939 490.145C60.0262 487.517 61.0104 484.971 64.2299 484.187L61.3027 488.025C60.4927 489.09 61.3949 491.226 62.8919 491.124C63.3225 488.306 64.517 485.32 67.7672 484.295L64.4094 488.988C64.0454 489.495 63.8864 491.062 64.353 491.39C64.7426 491.662 65.7986 492.005 66.4241 492.169C66.7419 490.627 67.1469 489.228 67.9364 488.03C69.5 486.585 69.9717 484.208 72.4119 484.121L67.9313 490.094C67.4955 490.678 68.1722 492.799 68.8746 492.835C69.5769 492.871 70.9406 492.599 71.8787 492.302C72.2427 489.602 73.427 487.743 75.8672 486.641L77.8665 483.87L78.4202 484.172L77.1335 487.415C78.6407 487.323 80.0607 487.635 80.2863 489.321C78.5125 488.598 76.3901 487.927 74.6932 488.988C73.8473 489.515 73.3244 491.395 73.7807 492.026C74.3036 492.753 75.5647 493.404 76.5285 493.639C79.4096 493.803 81.7474 493.209 82.906 490.581C85.6179 490.058 86.9354 487.553 86.6124 484.838C86.715 482.85 86.8175 481.114 87.5762 479.51L88.2119 482.994C95.8402 480.002 90.6317 473.624 91.4314 465.94C91.698 463.409 92.8156 460.499 92.0978 458.153C90.7188 453.655 90.2882 449.623 90.4112 444.925L90.7086 433.639C91.9851 424.105 92.672 414.479 95.3942 405.207C98.6137 394.223 100.147 383.783 98.5317 372.205L97.5371 356.324L93.6615 362.686C93.7281 358.89 96.5631 356.8 98.2138 353.941C101.751 347.799 103.945 341.006 104.709 333.921L104.796 327.097C104.007 328.757 103.438 330.166 102.213 331.503C106.324 320.991 106.98 312.241 106.529 300.816L107.58 303.798L110.518 288.957L112.327 280.038L113.901 267.369C114.537 262.266 114.368 257.256 113.906 252.266L111.44 249.5L98.2958 229.833C104.407 234.802 110.63 249.208 114.352 251.211C116.546 252.389 120.407 252.118 122.821 251.452C125.021 250.842 126.307 248.204 127.41 246.447L132.967 237.584L138.344 229.981L138.893 230.401L126.169 249.787L123.6 252.399C122.257 267.118 124.969 280.32 127.835 294.551L129.686 303.752C129.957 301.877 130.091 300.253 130.788 298.357C130.485 305.898 129.968 313.25 131.183 321.001L131.147 321.006ZM15.9737 286.747L21.7359 269.864C22.1615 269.823 21.8385 269.305 21.7359 269.864C21.413 269.894 22.4087 270.964 21.5587 270.383L18.8548 278.305L15.9737 287.907C16.8452 288.742 15.7686 289.031 16.0096 287.704L15.9737 286.747Z" fill="white"/>
<path d="M96.1067 82.7177L104.13 83.3785C101.254 83.8038 98.347 83.4093 95.2915 83.3068L83.4902 82.9072C85.71 81.1757 87.9965 82.4001 90.2573 82.4923L96.1015 82.7228L96.1067 82.7177Z" fill="white"/>
<path d="M94.1855 132.84L93.5703 131.872C98.0919 131.918 102.316 131.17 107.007 130.351C102.972 132.748 98.3944 132.559 94.1804 132.84H94.1855Z" fill="white"/>
</svg>
